Coordinates
version=1
nRows=8
nColumns=40
inDegrees=yes

Units are S.I. units (second, meters, Newtons, ...)
Angles are in degrees.

endheader
time	pelvis_tilt	pelvis_list	pelvis_rotation	pelvis_tx	pelvis_ty	pelvis_tz	hip_flexion_r	hip_adduction_r	hip_rotation_r	knee_angle_r	knee_angle_r_beta	ankle_angle_r	subtalar_angle_r	mtp_angle_r	hip_flexion_l	hip_adduction_l	hip_rotation_l	knee_angle_l	knee_angle_l_beta	ankle_angle_l	subtalar_angle_l	mtp_angle_l	lumbar_extension	lumbar_bending	lumbar_rotation	arm_flex_r	arm_add_r	arm_rot_r	elbow_flex_r	pro_sup_r	wrist_flex_r	wrist_dev_r	arm_flex_l	arm_add_l	arm_rot_l	elbow_flex_l	pro_sup_l	wrist_flex_l	wrist_dev_l
     44.43500000	     -2.80092179	     -5.30064275	      6.76919992	      1.04404280	      0.92745812	      0.48117099	      1.78105286	      3.20773382	    -19.50505232	     11.32625356	     11.32625356	     14.33517883	      5.61770032	     -5.97940249	     29.56822989	     -9.48502371	     -2.08045228	     23.94832314	     23.94832314	      9.19516215	     -6.81334629	      9.04148813	     -9.21531463	      7.29959940	      3.56012346	     41.47233546	    -20.08835797	    -11.93698811	     92.80350643	     44.30988658	      0.00000000	      0.00000000	    -14.70920035	     -5.42790448	      4.87568070	     26.42898907	     43.93437110	      0.00000000	      0.00000000
     44.44821429	     -2.85130080	     -5.30294776	      6.72159139	      1.04438584	      0.92660720	      0.47921340	      1.41139458	      3.11752151	    -19.37869326	     11.30611913	     11.30611913	     14.65750459	      5.58019091	     -5.99857152	     29.25462364	     -9.24132964	     -1.92371857	     24.72004276	     24.72004276	      9.01295780	     -7.05271852	      8.89281222	     -9.09837005	      7.19554443	      3.63932003	     41.59562026	    -20.02591774	    -11.90097359	     92.97665441	     44.30670192	      0.00000000	      0.00000000	    -14.36647274	     -5.70367497	      4.82134202	     26.58883322	     43.95407871	      0.00000000	      0.00000000
     44.46142857	     -2.83780696	     -5.52724472	      6.66499340	      1.04484897	      0.92561992	      0.47717088	      1.02249207	      3.26975497	    -19.17568569	     11.34145154	     11.34145154	     14.95819635	      5.50668911	     -5.80371944	     28.97722187	     -9.18053370	     -1.37863195	     25.61301070	     25.61301070	      8.79453711	     -7.73730742	      8.49417918	     -9.03136346	      7.41693338	      3.82028028	     41.65511954	    -20.19650350	    -11.96215709	     93.44483638	     44.30617392	      0.00000000	      0.00000000	    -14.07038139	     -5.90615883	      4.66792849	     27.05917446	     44.00284193	      0.00000000	      0.00000000
     44.47464286	     -2.86114440	     -5.55172612	      6.53319219	      1.04551064	      0.92477270	      0.47507005	      0.64355017	      3.17609818	    -19.00338920	     11.39552362	     11.39552362	     15.26925158	      5.49205474	     -5.79777399	     28.52513974	     -9.00766172	     -1.18962366	     26.19179151	     26.19179151	      8.70495309	     -8.02362156	      8.33327573	     -8.91407085	      7.32984567	      3.89379151	     41.51025849	    -20.06364974	    -11.89436240	     93.48343029	     44.30574703	      0.00000000	      0.00000000	    -13.61112090	     -6.22073472	      4.57699481	     27.31762275	     44.03069944	      0.00000000	      0.00000000
     44.48785714	     -2.83820040	     -5.62572182	      6.39261214	      1.04623735	      0.92398268	      0.47282605	      0.24651371	      3.11548731	    -18.79134159	     11.51787428	     11.51787428	     15.60698763	      5.45185001	     -5.70284713	     28.07733089	     -8.86745408	     -0.83930373	     26.74797076	     26.74797076	      8.67585846	     -8.57915736	      8.07394709	     -8.85009555	      7.32621048	      3.99852185	     41.28169029	    -20.04887752	    -11.88965865	     93.45601955	     44.31166916	      0.00000000	      0.00000000	    -13.10999469	     -6.51438200	      4.42793911	     27.72371297	     44.07180827	      0.00000000	      0.00000000
     44.50107143	     -2.92270628	     -5.62786433	      6.24811323	      1.04689330	      0.92330364	      0.47032786	      0.04249138	      2.93193585	    -18.47730651	     11.80087482	     11.80087482	     16.09922915	      5.27750737	     -4.91223699	     27.60436669	     -8.52290110	     -0.18871463	     26.91007385	     26.91007385	      8.22194849	     -9.83628158	      7.29491196	     -8.67469348	      7.24208036	      4.29665539	     40.76142747	    -20.28560437	    -12.12099196	     93.34245417	     44.34718027	      0.00000000	      0.00000000	    -12.57825875	     -6.85911024	      3.88871251	     28.78257252	     44.20547277	      0.00000000	      0.00000000
     44.51428571	     -2.92693055	     -5.61767990	      6.10539161	      1.04766066	      0.92283850	      0.46783539	     -0.31130628	      2.74257007	    -18.30418367	     11.95802272	     11.95802272	     16.31115801	      5.28537579	     -4.86995484	     27.19368222	     -8.36708318	     -0.08119236	     27.26919821	     27.26919821	      8.47111072	    -10.08440123	      7.01983547	     -8.59544764	      7.16367877	      4.17256656	     40.31565707	    -19.98099750	    -11.99407781	     93.17655957	     44.34995063	      0.00000000	      0.00000000	    -11.88010432	     -7.15686869	      3.79077846	     29.04515860	     44.23743498	      0.00000000	      0.00000000
     44.52750000	     -2.98009778	     -5.50324061	      5.93519190	      1.04829695	      0.92255863	      0.46509298	     -0.42066752	      2.35442314	    -18.03106479	     12.51394077	     12.51394077	     16.77219647	      5.11184704	     -4.24720844	     26.74243276	     -8.00785737	      0.23451146	     27.35936623	     27.35936623	      8.35355694	    -10.99188475	      6.31706043	     -8.45967394	      6.93424195	      4.26110873	     39.69232166	    -19.95159509	    -12.10707149	     92.34062808	     44.39853587	      0.00000000	      0.00000000	    -11.03017477	     -7.46191197	      3.35767708	     29.54179560	     44.35048195	      0.00000000	      0.00000000
